<svg width="177" height="151" viewBox="0 0 177 151" fill="none" xmlns="http://www.w3.org/2000/svg">
<circle cx="3.31084" cy="3.25957" r="2.58013" fill="white"/>
<circle cx="18.7916" cy="3.25957" r="2.58013" fill="white"/>
<circle cx="34.2723" cy="3.25957" r="2.58013" fill="white"/>
<circle cx="49.7532" cy="3.25957" r="2.58013" fill="white"/>
<circle cx="65.2339" cy="3.25957" r="2.58013" fill="white"/>
<circle cx="80.7147" cy="3.25957" r="2.58013" fill="white"/>
<circle cx="96.1954" cy="3.25957" r="2.58013" fill="white"/>
<circle cx="111.676" cy="3.25957" r="2.58013" fill="white"/>
<circle cx="127.157" cy="3.25957" r="2.58013" fill="white"/>
<circle cx="142.638" cy="3.25957" r="2.58013" fill="white"/>
<circle cx="158.118" cy="3.25957" r="2.58013" fill="white"/>
<circle cx="173.599" cy="3.25957" r="2.58013" fill="white"/>
<circle cx="3.31084" cy="23.9006" r="2.58013" fill="white"/>
<circle cx="18.7916" cy="23.9006" r="2.58013" fill="white"/>
<circle cx="34.2723" cy="23.9006" r="2.58013" fill="white"/>
<circle cx="49.7532" cy="23.9006" r="2.58013" fill="white"/>
<circle cx="65.2339" cy="23.9006" r="2.58013" fill="white"/>
<circle cx="80.7147" cy="23.9006" r="2.58013" fill="white"/>
<circle cx="96.1954" cy="23.9006" r="2.58013" fill="white"/>
<circle cx="111.676" cy="23.9006" r="2.58013" fill="white"/>
<circle cx="127.157" cy="23.9006" r="2.58013" fill="white"/>
<circle cx="142.638" cy="23.9006" r="2.58013" fill="white"/>
<circle cx="158.118" cy="23.9006" r="2.58013" fill="white"/>
<circle cx="173.599" cy="23.9006" r="2.58013" fill="white"/>
<circle cx="3.31084" cy="44.5416" r="2.58013" fill="white"/>
<circle cx="18.7916" cy="44.5416" r="2.58013" fill="white"/>
<circle cx="34.2723" cy="44.5416" r="2.58013" fill="white"/>
<circle cx="49.7532" cy="44.5416" r="2.58013" fill="white"/>
<circle cx="65.2339" cy="44.5416" r="2.58013" fill="white"/>
<circle cx="80.7147" cy="44.5416" r="2.58013" fill="white"/>
<circle cx="96.1954" cy="44.5416" r="2.58013" fill="white"/>
<circle cx="111.676" cy="44.5416" r="2.58013" fill="white"/>
<circle cx="127.157" cy="44.5416" r="2.58013" fill="white"/>
<circle cx="142.638" cy="44.5416" r="2.58013" fill="white"/>
<circle cx="158.118" cy="44.5416" r="2.58013" fill="white"/>
<circle cx="173.599" cy="44.5416" r="2.58013" fill="white"/>
<circle cx="3.31084" cy="65.1827" r="2.58013" fill="white"/>
<circle cx="18.7916" cy="65.1827" r="2.58013" fill="white"/>
<circle cx="34.2723" cy="65.1827" r="2.58013" fill="white"/>
<circle cx="49.7532" cy="65.1827" r="2.58013" fill="white"/>
<circle cx="65.2339" cy="65.1827" r="2.58013" fill="white"/>
<circle cx="80.7147" cy="65.1827" r="2.58013" fill="white"/>
<circle cx="96.1954" cy="65.1827" r="2.58013" fill="white"/>
<circle cx="111.676" cy="65.1827" r="2.58013" fill="white"/>
<circle cx="127.157" cy="65.1827" r="2.58013" fill="white"/>
<circle cx="142.638" cy="65.1827" r="2.58013" fill="white"/>
<circle cx="158.118" cy="65.1827" r="2.58013" fill="white"/>
<circle cx="173.599" cy="65.1827" r="2.58013" fill="white"/>
<circle cx="3.31084" cy="85.8237" r="2.58013" fill="white"/>
<circle cx="18.7916" cy="85.8237" r="2.58013" fill="white"/>
<circle cx="34.2723" cy="85.8237" r="2.58013" fill="white"/>
<circle cx="49.7532" cy="85.8237" r="2.58013" fill="white"/>
<circle cx="65.2339" cy="85.8237" r="2.58013" fill="white"/>
<circle cx="80.7147" cy="85.8237" r="2.58013" fill="white"/>
<circle cx="96.1954" cy="85.8237" r="2.58013" fill="white"/>
<circle cx="111.676" cy="85.8237" r="2.58013" fill="white"/>
<circle cx="127.157" cy="85.8237" r="2.58013" fill="white"/>
<circle cx="142.638" cy="85.8237" r="2.58013" fill="white"/>
<circle cx="158.118" cy="85.8237" r="2.58013" fill="white"/>
<circle cx="173.599" cy="85.8237" r="2.58013" fill="white"/>
<circle cx="3.31084" cy="106.465" r="2.58013" fill="white"/>
<circle cx="18.7916" cy="106.465" r="2.58013" fill="white"/>
<circle cx="34.2723" cy="106.465" r="2.58013" fill="white"/>
<circle cx="49.7532" cy="106.465" r="2.58013" fill="white"/>
<circle cx="65.2339" cy="106.465" r="2.58013" fill="white"/>
<circle cx="80.7147" cy="106.465" r="2.58013" fill="white"/>
<circle cx="96.1954" cy="106.465" r="2.58013" fill="white"/>
<circle cx="111.676" cy="106.465" r="2.58013" fill="white"/>
<circle cx="127.157" cy="106.465" r="2.58013" fill="white"/>
<circle cx="142.638" cy="106.465" r="2.58013" fill="white"/>
<circle cx="158.118" cy="106.465" r="2.58013" fill="white"/>
<circle cx="173.599" cy="106.465" r="2.58013" fill="white"/>
<circle cx="3.31084" cy="127.106" r="2.58013" fill="white"/>
<circle cx="18.7916" cy="127.106" r="2.58013" fill="white"/>
<circle cx="34.2723" cy="127.106" r="2.58013" fill="white"/>
<circle cx="49.7532" cy="127.106" r="2.58013" fill="white"/>
<circle cx="65.2339" cy="127.106" r="2.58013" fill="white"/>
<circle cx="80.7147" cy="127.106" r="2.58013" fill="white"/>
<circle cx="96.1954" cy="127.106" r="2.58013" fill="white"/>
<circle cx="111.676" cy="127.106" r="2.58013" fill="white"/>
<circle cx="127.157" cy="127.106" r="2.58013" fill="white"/>
<circle cx="142.638" cy="127.106" r="2.58013" fill="white"/>
<circle cx="158.118" cy="127.106" r="2.58013" fill="white"/>
<circle cx="173.599" cy="127.106" r="2.58013" fill="white"/>
<circle cx="3.31084" cy="147.747" r="2.58013" fill="white"/>
<circle cx="18.7916" cy="147.747" r="2.58013" fill="white"/>
<circle cx="34.2723" cy="147.747" r="2.58013" fill="white"/>
<circle cx="49.7532" cy="147.747" r="2.58013" fill="white"/>
<circle cx="65.2339" cy="147.747" r="2.58013" fill="white"/>
<circle cx="80.7147" cy="147.747" r="2.58013" fill="white"/>
<circle cx="96.1954" cy="147.747" r="2.58013" fill="white"/>
<circle cx="111.676" cy="147.747" r="2.58013" fill="white"/>
<circle cx="127.157" cy="147.747" r="2.58013" fill="white"/>
<circle cx="142.638" cy="147.747" r="2.58013" fill="white"/>
<circle cx="158.118" cy="147.747" r="2.58013" fill="white"/>
<circle cx="173.599" cy="147.747" r="2.58013" fill="white"/>
</svg>
